<?xml version="1.0" standalone="no"?>
<!DOCTYPE svg PUBLIC "-//W3C//DTD SVG 20010904//EN"
 "http://www.w3.org/TR/2001/REC-SVG-20010904/DTD/svg10.dtd">
<svg version="1.0" xmlns="http://www.w3.org/2000/svg"
 width="558.000000pt" height="558.000000pt" viewBox="0 0 558.000000 558.000000"
 preserveAspectRatio="xMidYMid meet">
<metadata>
Created by potrace 1.11, written by Peter Selinger 2001-2013
</metadata>
<g transform="translate(0.000000,558.000000) scale(0.100000,-0.100000)"
fill="#000000" stroke="none">
<path d="M2108 5565 c-177 -30 -319 -99 -416 -204 -42 -44 -102 -135 -102
-154 0 -7 -4 -17 -9 -22 -16 -17 -50 -167 -58 -260 -9 -104 -10 -1478 -1
-1695 12 -266 81 -418 250 -545 59 -44 156 -95 181 -95 7 0 17 -4 22 -8 10 -9
85 -26 165 -38 25 -4 250 -7 501 -8 l455 -2 49 -25 c35 -17 55 -35 69 -64 21
-39 21 -55 23 -825 3 -801 1 -842 -35 -898 -26 -40 -65 -52 -180 -57 -148 -6
-491 -6 -524 0 -87 17 -131 59 -145 138 -3 18 -7 204 -8 415 -2 211 -6 386 -9
389 -4 4 -697 7 -789 4 -18 -1 -19 -20 -14 -493 5 -525 8 -566 59 -698 67
-176 212 -307 408 -369 79 -25 105 -30 195 -38 99 -9 1051 -9 1165 0 101 8
264 44 327 73 218 101 334 285 370 584 4 36 8 448 8 915 0 770 -4 1009 -18
1032 -3 4 -8 24 -11 45 -23 145 -153 329 -287 406 -93 53 -152 73 -293 98 -42
7 -295 13 -651 15 -345 1 -384 7 -429 60 -14 16 -31 49 -37 72 -14 48 -20
1302 -7 1424 12 113 53 167 139 184 59 11 550 10 613 -2 86 -16 126 -61 142
-159 4 -25 7 -209 8 -410 l1 -365 405 0 405 0 -1 450 c-1 594 -3 620 -76 775
-33 69 -56 100 -122 165 -114 113 -224 164 -411 194 -95 15 -1234 11 -1327 -4z"/>
</g>
</svg>
